<svg xmlns="http://www.w3.org/2000/svg" width="209" height="216" viewBox="0 0 209 216">
  <path d="M1362.53763,198.335734 C1369.66399,198.335734 1375.23333,204.498615 1374.45482,211.559003 L1374.39493,212.277008 C1371.52044,239.142382 1367.02903,265.828255 1360.98061,292.155125 L1360.80095,293.052632 C1359.7829,299.155679 1354.4531,303.643213 1348.28491,303.643213 L1231.44852,303.643213 C1227.25654,305.258726 1224.26227,308.848753 1224.26227,313.096953 C1224.26227,318.72133 1229.53218,323.328532 1236.05969,323.328532 L1351.93791,323.328532 C1356.96829,323.328532 1361.04049,327.39723 1361.04049,332.423269 C1361.04049,337.449307 1356.96829,341.518006 1351.93791,341.518006 L1236.11958,341.518006 C1219.53132,341.518006 1206.05711,328.773407 1206.05711,313.096953 C1206.05711,303.643213 1210.96771,295.326316 1218.45339,290.120776 C1210.84794,262.477562 1206.35654,234.05651 1204.97917,205.455956 C1204.91929,205.21662 1204.8594,205.037119 1204.79952,204.797784 L1202.4041,189.839335 L1177.4319,189.839335 C1171.62301,189.839335 1166.59264,185.531302 1166.05367,180.026593 C1165.75425,176.975069 1166.71241,173.863712 1168.8084,171.590028 C1170.8445,169.316343 1173.83877,168 1176.89293,168 L1212.58462,168 C1217.49522,168 1221.56743,171.530194 1222.34594,176.316898 L1225.87917,198.335734 L1362.53763,198.335734 Z M1340.67946,383.281994 C1331.58417,383.281994 1324.21098,375.915156 1324.21098,366.827701 C1324.21098,357.740245 1331.58417,350.373407 1340.67946,350.373407 C1349.77475,350.373407 1357.14794,357.740245 1357.14794,366.827701 C1357.14794,375.915156 1349.77475,383.281994 1340.67946,383.281994 Z M1236.23935,383.281994 C1227.14406,383.281994 1219.77086,375.915156 1219.77086,366.827701 C1219.77086,357.740245 1227.14406,350.373407 1236.23935,350.373407 C1245.33464,350.373407 1252.70783,357.740245 1252.70783,366.827701 C1252.70783,375.915156 1245.33464,383.281994 1236.23935,383.281994 Z M1282.0062,258.609342 C1282.56014,261.303609 1285.8838,263 1290.5,263 C1295.1162,263 1298.43986,261.303609 1298.9938,258.609342 L1306.93366,221.089172 C1307.4876,218.195329 1304.53323,216 1299.54774,216 L1281.45226,216 C1276.46677,216 1273.5124,218.195329 1274.06634,221.089172 L1282.0062,258.609342 Z M1282,280.401163 L1282,280.598837 C1282,285.343023 1285.61494,289 1290.5,289 C1295.38506,289 1299,285.343023 1299,280.598837 L1299,280.401163 C1299,275.656977 1295.38506,272 1290.5,272 C1285.61494,272 1282,275.656977 1282,280.401163 Z" transform="translate(-1166 -168)"/>
</svg>
