<svg xmlns="http://www.w3.org/2000/svg" xmlns:xlink="http://www.w3.org/1999/xlink" width="344" height="345" viewBox="0 0 344 345">
  <defs>
    <linearGradient id="icon-a" x1="50%" x2="50%" y1="0%" y2="100%">
      <stop offset="0%" stop-color="#5CD0DA"/>
      <stop offset="100%" stop-color="#2FA3B3"/>
    </linearGradient>
    <linearGradient id="icon-d" x1="50%" x2="50%" y1="0%" y2="100%">
      <stop offset="0%" stop-color="#FFF"/>
      <stop offset="100%" stop-color="#C4F8FF"/>
    </linearGradient>
    <path id="icon-c" d="M255.537627,101.335734 C262.663988,101.335734 268.233329,107.498615 267.454819,114.559003 L267.394934,115.277008 C264.520435,142.142382 260.029031,168.828255 253.980607,195.155125 L253.800951,196.052632 C252.782899,202.155679 247.4531,206.643213 241.284905,206.643213 L124.448515,206.643213 C120.256538,208.258726 117.262269,211.848753 117.262269,216.096953 C117.262269,221.72133 122.532183,226.328532 129.05969,226.328532 L244.937914,226.328532 C249.968286,226.328532 254.040492,230.39723 254.040492,235.423269 C254.040492,240.449307 249.968286,244.518006 244.937914,244.518006 L129.119575,244.518006 C112.531323,244.518006 99.0571113,231.773407 99.0571113,216.096953 C99.0571113,206.643213 103.967713,198.326316 111.453386,193.120776 C103.847942,165.477562 99.3565382,137.05651 97.9791743,108.455956 C97.919289,108.21662 97.8594036,108.037119 97.7995182,107.797784 L95.4041027,92.8393352 L70.4318964,92.8393352 C64.6230139,92.8393352 59.5926414,88.5313019 59.0536729,83.0265928 C58.754246,79.9750693 59.7124122,76.8637119 61.8084007,74.5900277 C63.8445039,72.3163435 66.8387732,71 69.8929279,71 L105.584618,71 C110.49522,71 114.567426,74.5301939 115.345937,79.3168975 L118.879174,101.335734 L255.537627,101.335734 Z M233.679461,286.281994 C224.58417,286.281994 217.210979,278.915156 217.210979,269.827701 C217.210979,260.740245 224.58417,253.373407 233.679461,253.373407 C242.774752,253.373407 250.147942,260.740245 250.147942,269.827701 C250.147942,278.915156 242.774752,286.281994 233.679461,286.281994 Z M129.239346,286.281994 C120.144055,286.281994 112.770865,278.915156 112.770865,269.827701 C112.770865,260.740245 120.144055,253.373407 129.239346,253.373407 C138.334637,253.373407 145.707828,260.740245 145.707828,269.827701 C145.707828,278.915156 138.334637,286.281994 129.239346,286.281994 Z M175.0062,161.609342 C175.560144,164.303609 178.883805,166 183.5,166 C188.116195,166 191.439856,164.303609 191.9938,161.609342 L199.933656,124.089172 C200.487599,121.195329 197.533234,119 192.547743,119 L174.452257,119 C169.466766,119 166.512401,121.195329 167.066344,124.089172 L175.0062,161.609342 Z M175,183.401163 L175,183.598837 C175,188.343023 178.614943,192 183.5,192 C188.385057,192 192,188.343023 192,183.598837 L192,183.401163 C192,178.656977 188.385057,175 183.5,175 C178.614943,175 175,178.656977 175,183.401163 Z"/>
    <filter id="icon-b" width="108.6%" height="109.3%" x="-4.3%" y="-2.3%" filterUnits="objectBoundingBox">
      <feOffset dy="6" in="SourceAlpha" result="shadowOffsetOuter1"/>
      <feGaussianBlur in="shadowOffsetOuter1" result="shadowBlurOuter1" stdDeviation="2"/>
      <feColorMatrix in="shadowBlurOuter1" values="0 0 0 0 0   0 0 0 0 0   0 0 0 0 0  0 0 0 0.1 0"/>
    </filter>
  </defs>
  <g fill="none" fill-rule="evenodd">
    <path fill="url(#icon-a)" d="M73.013407,2.6866064 C106.18824,0.895535467 139.183771,-3.78753344e-15 172,0 C204.832174,0 237.664282,0.896405919 270.496323,2.68921776 L270.496323,2.68921771 C308.699378,4.77531668 339.208201,35.2833237 341.295323,73.4863222 C343.098441,106.490881 344,139.495441 344,172.5 C344,205.511425 343.098066,238.52285 341.294197,271.534276 L341.294197,271.534275 C339.20649,309.740047 308.693155,340.248892 270.487077,342.330977 C237.836179,344.110326 205.007154,345 172,345 C139.007428,345 106.01479,344.111111 73.0220864,342.333334 L73.0220864,342.333335 C34.4742283,340.256224 3.79947595,309.257162 2.12787429,270.689591 C0.709291429,237.959727 1.89395185e-15,205.229864 0,172.5 C0,139.776865 0.708999838,107.053729 2.12699951,74.3305938 L2.12699924,74.3305938 C3.79813889,35.7657548 34.4685114,4.76760084 73.013407,2.6866064 Z"/>
    <g fill-rule="nonzero">
      <use fill="#000" filter="url(#icon-b)" xlink:href="#icon-c"/>
      <use fill="url(#icon-d)" xlink:href="#icon-c"/>
    </g>
  </g>
</svg>
